<mxfile host="app.diagrams.net" agent="Mozilla/5.0 (Windows NT 10.0; Win64; x64) AppleWebKit/537.36 (KHTML, like Gecko) Chrome/132.0.0.0 Safari/537.36" version="26.0.15">
  <diagram name="Page-1" id="XNo7D4F-3YFf2rSW4mvJ">
    <mxGraphModel dx="2501" dy="940" grid="1" gridSize="10" guides="1" tooltips="1" connect="1" arrows="1" fold="1" page="1" pageScale="1" pageWidth="827" pageHeight="1169" math="0" shadow="0">
      <root>
        <mxCell id="0" />
        <mxCell id="1" parent="0" />
        <mxCell id="qZQEL0t76y7wRIoySrma-2" value="&lt;font style=&quot;font-size: 36px;&quot;&gt;Use Case Situation 1: User Interacts with the System&lt;/font&gt;" style="text;html=1;align=center;verticalAlign=middle;resizable=0;points=[];autosize=1;strokeColor=none;fillColor=none;" vertex="1" parent="1">
          <mxGeometry x="-10" y="40" width="870" height="60" as="geometry" />
        </mxCell>
        <mxCell id="qZQEL0t76y7wRIoySrma-3" value="Actor" style="shape=umlActor;verticalLabelPosition=bottom;verticalAlign=top;html=1;outlineConnect=0;" vertex="1" parent="1">
          <mxGeometry x="50" y="340" width="30" height="60" as="geometry" />
        </mxCell>
        <mxCell id="qZQEL0t76y7wRIoySrma-4" value="" style="whiteSpace=wrap;html=1;aspect=fixed;" vertex="1" parent="1">
          <mxGeometry x="259" y="215" width="310" height="310" as="geometry" />
        </mxCell>
        <mxCell id="qZQEL0t76y7wRIoySrma-8" value="" style="ellipse;whiteSpace=wrap;html=1;" vertex="1" parent="1">
          <mxGeometry x="269" y="220" width="81" height="50" as="geometry" />
        </mxCell>
        <mxCell id="qZQEL0t76y7wRIoySrma-5" value="Retrieve Statistics" style="text;html=1;align=center;verticalAlign=middle;whiteSpace=wrap;rounded=0;" vertex="1" parent="1">
          <mxGeometry x="280" y="230" width="60" height="30" as="geometry" />
        </mxCell>
        <mxCell id="qZQEL0t76y7wRIoySrma-9" value="" style="ellipse;whiteSpace=wrap;html=1;" vertex="1" parent="1">
          <mxGeometry x="279.5" y="360" width="81" height="50" as="geometry" />
        </mxCell>
        <mxCell id="qZQEL0t76y7wRIoySrma-10" value="" style="ellipse;whiteSpace=wrap;html=1;" vertex="1" parent="1">
          <mxGeometry x="369.5" y="280" width="81" height="50" as="geometry" />
        </mxCell>
        <mxCell id="qZQEL0t76y7wRIoySrma-6" value="Observe Real-time Data" style="text;html=1;align=center;verticalAlign=middle;whiteSpace=wrap;rounded=0;" vertex="1" parent="1">
          <mxGeometry x="380" y="290" width="60" height="30" as="geometry" />
        </mxCell>
        <mxCell id="qZQEL0t76y7wRIoySrma-7" value="Receive Notifications" style="text;html=1;align=center;verticalAlign=middle;whiteSpace=wrap;rounded=0;" vertex="1" parent="1">
          <mxGeometry x="290" y="370" width="60" height="30" as="geometry" />
        </mxCell>
      </root>
    </mxGraphModel>
  </diagram>
</mxfile>
